# Blender v3.0.1 OBJ File: ''
# www.blender.org
mtllib liquid_red.mtl
o liquid_red
v 0.439740 0.109530 0.455812
v -0.365969 0.109199 0.517084
v -0.090430 0.109199 0.625345
v 0.016443 0.109199 -0.651742
v -0.321976 0.108733 -0.568110
v 0.604933 0.108736 -0.230189
v 0.576013 0.108733 0.279094
v 0.878748 -0.726432 0.586712
v 0.621635 0.107865 0.167067
v 1.004256 -0.729872 0.322109
v 1.059389 -0.726263 0.120316
v -0.631298 -0.725165 -0.866401
v -0.418406 0.104041 -0.508571
v -0.649146 0.104041 -0.076886
v -1.072824 -0.727102 0.006261
v -0.609760 0.107069 0.211462
v 0.096271 -0.727793 -1.062401
v -0.159114 -0.725888 -1.067934
v 0.294503 -0.725795 -1.029482
v 0.362377 0.107865 -0.545244
v 0.526540 0.106458 -0.356262
v 0.664797 -0.725095 -0.849790
v -0.409951 -0.730932 0.954567
v -0.246154 -0.725096 1.028441
v -0.636772 -0.726119 0.843072
v -0.138434 0.104041 0.617977
v -0.044660 -1.148449 0.897326
v -0.623139 -1.146889 0.648817
v 0.149382 -1.147264 -0.905225
v 0.698308 -1.149439 0.572480
v -0.594359 0.107004 -0.258548
v -0.138433 0.104041 -0.646378
v -0.418407 0.104041 0.480171
v 0.940594 -0.727161 -0.482370
v 0.630633 0.106571 -0.159503
v 0.204392 0.109199 0.598430
v 0.890072 -0.725416 0.570763
v -0.301613 -0.727161 -1.018205
v -1.032872 -0.727312 -0.244926
v -1.050789 -0.933846 -0.141666
v -0.996106 -0.927928 -0.392307
v 0.172962 0.104041 -0.626201
v 0.417003 -0.727161 -0.976352
v 0.410692 -0.941795 -0.987327
v -0.629586 0.105586 -0.031749
v -0.469813 0.106131 -0.431552
v -0.576709 0.104041 -0.315678
v -0.554341 0.106131 0.291627
v -0.721297 -0.728818 0.755563
v -0.880123 -0.725470 0.583205
v -0.608184 0.104041 0.232462
v 0.858962 -0.731147 -0.607830
v 1.054007 -0.727823 -0.133267
v 0.992622 -0.726643 -0.385612
v 0.954099 -0.937460 -0.473490
v 0.193654 -0.725341 1.033897
v 0.259143 -0.725903 1.021836
v 0.063215 -0.728096 1.040757
v 0.035313 -0.915172 1.056862
v -0.146869 -0.728320 1.035174
v 0.749967 -0.728706 0.731791
v 0.638508 -0.724760 0.841295
v -0.061941 -0.968018 -1.060491
v -0.133694 -1.142157 -0.907866
v -0.188216 -1.000738 -1.028955
v -0.456496 -1.144525 -0.791390
v -0.866762 -0.983022 -0.591603
v -0.930475 -0.725708 -0.527689
v -0.986568 -0.968162 -0.378185
v -1.038649 -0.999410 -0.019660
v 0.732883 -0.855241 -0.800429
v 0.176752 -0.900742 -1.060252
v 0.695883 -1.148182 -0.593137
v 0.445759 -1.141803 -0.797170
v 0.894347 -1.131985 -0.147144
v 0.877566 -1.140829 -0.218256
v 1.032363 -0.944212 -0.246673
v 1.033415 -0.997845 0.114311
v 1.051061 -0.958178 0.117257
v -0.827895 -0.729961 -0.658257
v -0.834216 -0.729821 -0.651084
v -0.526667 -0.729135 -0.918801
v -0.947113 -0.728168 -0.486291
v -1.043338 -0.972259 0.099334
v -1.035234 -0.894395 0.236900
v 0.314369 -0.726511 -1.024479
v 0.311626 -0.923831 0.995298
v -0.883596 -0.726383 -0.588327
v -0.820363 -0.954479 0.653911
v -0.939743 -0.728096 0.463998
v -1.028773 -0.726824 0.254446
v -1.039064 -0.726662 0.200474
v -0.753536 -1.141005 0.485137
v -0.845933 -1.139453 0.298839
v -0.800280 -0.991285 0.659325
v -0.905178 -1.143039 -0.017580
v -0.846573 -1.140208 -0.318743
v -0.389408 -0.853749 0.980204
v -0.418906 -0.970936 0.957603
v -0.051315 -0.937123 1.039567
v 0.035018 -0.960509 1.046936
v -0.523410 -0.971938 0.898181
v -0.353749 -1.140726 0.821305
v 0.722578 -0.729441 -0.779866
v 0.850801 -1.141763 -0.317320
v 0.819308 -0.873497 -0.699233
v 1.036542 -0.935976 -0.241290
v -0.189535 -0.725887 1.033283
v 0.282572 0.107864 0.571148
v 0.520839 -0.726206 0.917031
v 0.631731 -0.986581 0.819091
v 0.418030 -0.976616 0.947272
v 0.481269 -1.142613 0.759927
v 0.811249 -0.960402 0.662694
v -0.294706 -0.979480 -1.010346
v -0.592121 -1.037279 -0.830057
v -0.527032 -0.930762 -0.927062
v -0.673756 -1.138424 -0.613650
v -0.254864 -1.135916 -0.876291
v -0.722190 -0.981859 -0.762516
v -1.001013 -1.026233 -0.115914
v -0.869533 -0.991022 -0.572281
v 0.491966 -0.981713 -0.921833
v 0.177916 -0.954526 -1.045917
v 0.810705 -1.147250 0.396612
v 0.592988 -1.044077 -0.821352
v 0.699351 -1.041278 -0.740915
v 0.742920 -1.140902 -0.530105
v 0.948967 -0.898483 0.475013
v 0.742176 -0.938090 0.749142
v -0.618450 -0.725419 -0.874213
v -0.315438 -0.880115 -1.021552
v -0.982716 -0.982916 0.345341
v 0.154273 -1.145288 0.882090
v -0.286126 -1.032084 0.961438
v 0.418213 -0.952380 0.960026
v 0.291911 -0.957624 0.994362
v -0.803747 -0.948225 -0.684124
v -0.908330 -0.728973 0.529564
v -0.998576 -0.943238 0.346977
v -0.895139 -1.132727 0.088699
v -0.415306 -1.027314 0.906681
v 0.949874 -0.941804 -0.477559
v 0.803111 -0.931693 -0.692498
v 1.040702 -0.962035 -0.021741
v -0.648339 -0.847001 -0.868495
v -0.798755 -0.997478 -0.655803
v -0.755939 -1.136323 -0.504787
v 0.417481 -0.977988 -0.969090
v 0.903581 -1.141037 0.068417
v 0.869954 -0.967927 0.566193
v 0.699529 -0.978432 -0.775873
v 0.975049 -0.993731 0.329382
v -0.304407 -0.880674 -1.024085
v -0.942511 -1.030632 0.327565
v -0.820365 -1.138267 0.370739
v 0.349815 -1.135751 0.823123
v -0.997354 -0.872026 0.350245
v -0.632179 -0.900560 -0.861211
v 0.302629 -0.978626 -1.000098
v 0.898050 -1.140996 0.093116
v 0.940176 -0.958875 0.457164
v 0.356823 -1.138775 0.816425
vn 0.3863 0.8331 0.3959
vn -0.2824 0.8346 0.4729
vn -0.0366 0.8324 0.5530
vn 0.0351 0.8356 -0.5482
vn -0.2548 0.8361 -0.4858
vn 0.4976 0.8341 -0.2382
vn 0.4865 0.8302 0.2723
vn 0.7674 0.2152 0.6040
vn 0.5580 0.8212 0.1193
vn 0.9238 0.2125 0.3185
vn 0.9702 0.2110 0.1192
vn -0.6000 0.2740 -0.7516
vn -0.4195 0.7841 -0.4574
vn -0.5925 0.8041 -0.0486
vn -0.9790 0.2034 0.0101
vn -0.5179 0.8510 0.0865
vn 0.0806 0.2359 -0.9684
vn -0.1471 0.2082 -0.9670
vn 0.2098 0.2446 -0.9466
vn 0.3355 0.8189 -0.4656
vn 0.4777 0.8037 -0.3548
vn 0.5945 0.2444 -0.7661
vn -0.4116 0.2802 0.8672
vn -0.2361 0.2055 0.9498
vn -0.5849 0.2054 0.7846
vn -0.2297 0.6958 0.6805
vn -0.0254 -0.8890 0.4572
vn -0.3028 -0.8909 0.3385
vn 0.0777 -0.8848 -0.4594
vn 0.3558 -0.8859 0.2976
vn -0.5089 0.8453 -0.1631
vn -0.1425 0.7808 -0.6084
vn -0.4739 0.7541 0.4547
vn 0.8342 0.2526 -0.4903
vn 0.5902 0.8022 -0.0903
vn 0.1225 0.8340 0.5380
vn 0.8300 0.2311 0.5076
vn -0.3559 0.2487 -0.9009
vn -0.9448 0.2313 -0.2321
vn -0.9634 -0.2304 -0.1368
vn -0.9196 -0.1537 -0.3616
vn 0.1807 0.7750 -0.6056
vn 0.4263 0.2416 -0.8717
vn 0.3848 -0.1960 -0.9019
vn -0.0659 0.9978 -0.0011
vn -0.1196 0.9880 -0.0976
vn -0.5410 0.7819 -0.3098
vn -0.2031 0.9668 0.1549
vn -0.7074 0.2273 0.6692
vn -0.8047 0.2148 0.5534
vn -0.6113 0.7393 0.2825
vn 0.7799 0.2919 -0.5537
vn 0.9700 0.2158 -0.1118
vn 0.9079 0.2318 -0.3492
vn 0.8799 -0.2379 -0.4113
vn 0.1278 0.2325 0.9642
vn 0.2636 0.2091 0.9417
vn 0.0134 0.2669 0.9636
vn 0.0257 -0.0973 0.9949
vn -0.0314 0.1850 0.9822
vn 0.7056 0.2390 0.6671
vn 0.5980 0.2067 0.7744
vn -0.0341 -0.3546 -0.9344
vn -0.0685 -0.8842 -0.4621
vn -0.1733 -0.4643 -0.8685
vn -0.2059 -0.9003 -0.3835
vn -0.7612 -0.3983 -0.5119
vn -0.8444 0.2175 -0.4895
vn -0.8227 -0.4881 -0.2914
vn -0.8790 -0.4768 -0.0053
vn 0.6743 -0.0842 -0.7337
vn 0.1533 -0.1063 -0.9824
vn 0.3539 -0.8943 -0.2739
vn 0.2170 -0.8818 -0.4188
vn 0.7187 -0.6910 -0.0776
vn 0.4633 -0.8818 -0.0884
vn 0.8628 -0.4580 -0.2140
vn 0.8327 -0.5473 0.0839
vn 0.9666 -0.2299 0.1134
vn -0.7212 0.2443 -0.6482
vn -0.7494 0.2195 -0.6247
vn -0.4036 0.2432 -0.8820
vn -0.9066 0.2505 -0.3396
vn -0.9117 -0.3954 0.1118
vn -0.9711 -0.1022 0.2155
vn 0.3255 0.2268 -0.9180
vn 0.2586 -0.1094 0.9598
vn -0.7660 0.2202 -0.6040
vn -0.7682 -0.1873 0.6122
vn -0.8824 0.2355 0.4073
vn -0.9318 0.2370 0.2750
vn -0.9554 0.2391 0.1733
vn -0.4042 -0.8824 0.2408
vn -0.4331 -0.8925 0.1261
vn -0.6614 -0.4748 0.5807
vn -0.4364 -0.8997 0.0007
vn -0.4209 -0.8940 -0.1535
vn -0.3589 -0.0289 0.9329
vn -0.3678 -0.3476 0.8625
vn -0.1739 -0.2219 0.9594
vn 0.0324 -0.4102 0.9114
vn -0.5095 -0.3693 0.7772
vn -0.2026 -0.8786 0.4324
vn 0.7437 0.3085 -0.5930
vn 0.4528 -0.8762 -0.1649
vn 0.7922 -0.0667 -0.6066
vn 0.9660 -0.1893 -0.1761
vn -0.0626 0.2450 0.9675
vn 0.2749 0.8079 0.5213
vn 0.4626 0.2000 0.8637
vn 0.5328 -0.4086 0.7411
vn 0.3297 -0.5392 0.7750
vn 0.2462 -0.8751 0.4166
vn 0.7353 -0.3464 0.5825
vn -0.2853 -0.4113 -0.8657
vn -0.4714 -0.5722 -0.6711
vn -0.4463 -0.2354 -0.8634
vn -0.3466 -0.8890 -0.2991
vn -0.2147 -0.7629 -0.6098
vn -0.6407 -0.4174 -0.6444
vn -0.7627 -0.6294 -0.1486
vn -0.6750 -0.6472 -0.3543
vn 0.5027 -0.3624 -0.7848
vn 0.1518 -0.4197 -0.8949
vn 0.4216 -0.8852 0.1966
vn 0.4655 -0.5706 -0.6766
vn 0.5858 -0.5637 -0.5824
vn 0.5783 -0.7483 -0.3250
vn 0.8931 -0.1073 0.4368
vn 0.6742 -0.2244 0.7037
vn -0.4544 0.2619 -0.8514
vn -0.3291 -0.0650 -0.9421
vn -0.8015 -0.5145 0.3047
vn 0.1026 -0.8769 0.4696
vn -0.2015 -0.5530 0.8085
vn 0.3871 -0.2380 0.8908
vn 0.2149 -0.3886 0.8960
vn -0.7609 -0.1613 -0.6286
vn -0.8734 0.2092 0.4398
vn -0.9108 -0.2024 0.3600
vn -0.6993 -0.7014 0.1375
vn -0.3539 -0.6612 0.6615
vn 0.7744 -0.4605 -0.4340
vn 0.7303 -0.3552 -0.5835
vn 0.9152 -0.3980 -0.0636
vn -0.6060 -0.0499 -0.7939
vn -0.5989 -0.6206 -0.5061
vn -0.4244 -0.8672 -0.2606
vn 0.3516 -0.4951 -0.7945
vn 0.4543 -0.8906 0.0203
vn 0.7574 -0.4472 0.4758
vn 0.6099 -0.3463 -0.7128
vn 0.8388 -0.4610 0.2896
vn -0.2148 -0.1123 -0.9702
vn -0.7079 -0.6766 0.2026
vn -0.4647 -0.8569 0.2231
vn 0.2464 -0.7220 0.6466
vn -0.9232 0.0123 0.3841
vn -0.5718 -0.2871 -0.7685
vn 0.2163 -0.5273 -0.8217
vn 0.5333 -0.8361 0.1288
vn 0.8216 -0.4096 0.3965
vn 0.2091 -0.8271 0.5217
usemtl Default_OBJ
s 1
f 1//1 2//2 3//3
f 1//1 4//4 2//2
f 5//5 2//2 4//4
f 6//6 4//4 1//1
f 7//7 1//1 8//8
f 7//7 6//6 1//1
f 7//7 9//9 6//6
f 10//10 11//11 9//9
f 10//10 9//9 7//7
f 12//12 13//13 5//5
f 14//14 15//15 16//16
f 17//17 18//18 4//4
f 17//17 4//4 19//19
f 20//20 21//21 22//22
f 20//20 6//6 21//21
f 20//20 4//4 6//6
f 23//23 24//24 2//2
f 23//23 2//2 25//25
f 26//26 24//24 3//3
f 26//26 3//3 2//2
f 26//26 2//2 24//24
f 27//27 28//28 29//29
f 27//27 29//29 30//30
f 31//31 16//16 2//2
f 31//31 2//2 5//5
f 32//32 5//5 4//4
f 32//32 4//4 18//18
f 33//33 25//25 2//2
f 34//34 21//21 6//6
f 35//35 6//6 9//9
f 35//35 9//9 11//11
f 36//36 1//1 3//3
f 37//37 10//10 7//7
f 37//37 7//7 8//8
f 38//38 32//32 18//18
f 38//38 5//5 32//32
f 39//39 15//15 14//14
f 39//39 14//14 31//31
f 40//40 39//39 41//41
f 40//40 15//15 39//39
f 42//42 19//19 4//4
f 42//42 4//4 20//20
f 43//43 20//20 22//22
f 43//43 22//22 44//44
f 45//45 31//31 14//14
f 45//45 14//14 16//16
f 45//45 16//16 31//31
f 46//46 31//31 5//5
f 46//46 5//5 13//13
f 47//47 46//46 13//13
f 47//47 31//31 46//46
f 47//47 39//39 31//31
f 48//48 33//33 2//2
f 48//48 2//2 16//16
f 49//49 33//33 50//50
f 49//49 25//25 33//33
f 51//51 48//48 16//16
f 51//51 16//16 15//15
f 51//51 50//50 33//33
f 51//51 33//33 48//48
f 52//52 21//21 34//34
f 53//53 35//35 11//11
f 54//54 34//34 6//6
f 54//54 6//6 35//35
f 54//54 35//35 53//53
f 54//54 55//55 34//34
f 56//56 36//36 3//3
f 56//56 57//57 36//36
f 56//56 3//3 58//58
f 56//56 58//58 59//59
f 56//56 59//59 57//57
f 60//60 59//59 58//58
f 61//61 8//8 1//1
f 61//61 1//1 62//62
f 63//63 64//64 65//65
f 63//63 29//29 64//64
f 66//66 29//29 28//28
f 66//66 64//64 29//29
f 67//67 41//41 68//68
f 69//69 40//40 41//41
f 69//69 70//70 40//40
f 69//69 41//41 67//67
f 71//71 44//44 22//22
f 72//72 17//17 19//19
f 72//72 63//63 18//18
f 72//72 18//18 17//17
f 73//73 30//30 29//29
f 73//73 29//29 74//74
f 75//75 76//76 77//77
f 75//75 77//77 78//78
f 79//79 53//53 11//11
f 79//79 11//11 10//10
f 80//80 81//81 13//13
f 80//80 13//13 12//12
f 82//82 5//5 38//38
f 83//83 68//68 41//41
f 83//83 41//41 39//39
f 83//83 47//47 68//68
f 83//83 39//39 47//47
f 84//84 40//40 70//70
f 84//84 15//15 40//40
f 84//84 85//85 15//15
f 86//86 42//42 20//20
f 86//86 19//19 42//42
f 86//86 20//20 43//43
f 86//86 43//43 44//44
f 86//86 72//72 19//19
f 86//86 44//44 72//72
f 87//87 57//57 59//59
f 88//88 68//68 47//47
f 88//88 47//47 13//13
f 88//88 13//13 81//81
f 89//89 25//25 49//49
f 89//89 49//49 50//50
f 90//90 51//51 91//91
f 92//92 51//51 15//15
f 92//92 91//91 51//51
f 92//92 85//85 91//91
f 92//92 15//15 85//85
f 93//93 94//94 28//28
f 93//93 28//28 95//95
f 96//96 28//28 94//94
f 96//96 66//66 28//28
f 96//96 97//97 66//66
f 96//96 84//84 70//70
f 98//98 23//23 25//25
f 98//98 99//99 24//24
f 98//98 24//24 23//23
f 100//100 59//59 24//24
f 100//100 24//24 99//99
f 100//100 101//101 59//59
f 102//102 95//95 28//28
f 102//102 89//89 95//95
f 102//102 25//25 89//89
f 102//102 98//98 25//25
f 102//102 99//99 98//98
f 103//103 28//28 27//27
f 104//104 22//22 21//21
f 104//104 21//21 52//52
f 105//105 77//77 76//76
f 106//106 52//52 34//34
f 106//106 34//34 55//55
f 106//106 104//104 52//52
f 106//106 71//71 22//22
f 106//106 22//22 104//104
f 107//107 54//54 53//53
f 107//107 53//53 79//79
f 107//107 77//77 55//55
f 107//107 55//55 54//54
f 108//108 24//24 59//59
f 108//108 59//59 60//60
f 108//108 60//60 58//58
f 108//108 3//3 24//24
f 108//108 58//58 3//3
f 109//109 36//36 57//57
f 109//109 57//57 110//110
f 109//109 1//1 36//36
f 109//109 110//110 62//62
f 109//109 62//62 1//1
f 111//111 62//62 110//110
f 111//111 112//112 113//113
f 111//111 113//113 30//30
f 111//111 30//30 114//114
f 115//115 116//116 117//117
f 115//115 66//66 116//116
f 115//115 63//63 65//65
f 118//118 66//66 97//97
f 118//118 116//116 66//66
f 119//119 65//65 64//64
f 119//119 64//64 66//66
f 119//119 115//115 65//65
f 119//119 66//66 115//115
f 120//120 117//117 116//116
f 120//120 116//116 118//118
f 121//121 69//69 97//97
f 121//121 70//70 69//69
f 121//121 96//96 70//70
f 121//121 97//97 96//96
f 122//122 69//69 67//67
f 122//122 97//97 69//69
f 123//123 44//44 71//71
f 124//124 72//72 44//44
f 124//124 29//29 63//63
f 124//124 63//63 72//72
f 125//125 30//30 73//73
f 126//126 73//73 74//74
f 126//126 127//127 73//73
f 128//128 73//73 127//127
f 128//128 105//105 73//73
f 129//129 37//37 8//8
f 129//129 8//8 114//114
f 129//129 10//10 37//37
f 129//129 79//79 10//10
f 130//130 114//114 8//8
f 130//130 8//8 61//61
f 130//130 61//61 62//62
f 130//130 111//111 114//114
f 130//130 62//62 111//111
f 131//131 12//12 5//5
f 131//131 5//5 82//82
f 132//132 82//82 38//38
f 132//132 115//115 117//117
f 132//132 38//38 18//18
f 133//133 95//95 89//89
f 134//134 101//101 27//27
f 134//134 27//27 30//30
f 134//134 30//30 113//113
f 135//135 27//27 101//101
f 135//135 100//100 99//99
f 135//135 101//101 100//100
f 135//135 103//103 27//27
f 136//136 110//110 57//57
f 136//136 57//57 87//87
f 136//136 111//111 110//110
f 136//136 112//112 111//111
f 137//137 87//87 59//59
f 137//137 59//59 101//101
f 137//137 136//136 87//87
f 137//137 112//112 136//136
f 137//137 134//134 112//112
f 137//137 101//101 134//134
f 138//138 67//67 68//68
f 138//138 68//68 88//88
f 138//138 88//88 81//81
f 138//138 120//120 67//67
f 139//139 50//50 51//51
f 139//139 51//51 90//90
f 140//140 85//85 84//84
f 140//140 84//84 133//133
f 140//140 50//50 139//139
f 140//140 133//133 89//89
f 140//140 89//89 50//50
f 141//141 96//96 94//94
f 141//141 84//84 96//96
f 142//142 102//102 28//28
f 142//142 28//28 103//103
f 142//142 99//99 102//102
f 142//142 135//135 99//99
f 142//142 103//103 135//135
f 143//143 55//55 77//77
f 143//143 77//77 105//105
f 143//143 105//105 128//128
f 143//143 128//128 127//127
f 143//143 106//106 55//55
f 144//144 71//71 106//106
f 144//144 143//143 127//127
f 144//144 106//106 143//143
f 145//145 107//107 79//79
f 145//145 79//79 78//78
f 145//145 78//78 77//77
f 145//145 77//77 107//107
f 146//146 120//120 138//138
f 146//146 12//12 131//131
f 146//146 80//80 12//12
f 146//146 131//131 82//82
f 146//146 138//138 81//81
f 146//146 81//81 80//80
f 146//146 132//132 117//117
f 146//146 82//82 132//132
f 147//147 120//120 118//118
f 147//147 118//118 67//67
f 147//147 67//67 120//120
f 148//148 118//118 97//97
f 148//148 97//97 122//122
f 148//148 122//122 67//67
f 148//148 67//67 118//118
f 149//149 74//74 29//29
f 149//149 126//126 74//74
f 149//149 123//123 126//126
f 149//149 44//44 123//123
f 149//149 124//124 44//44
f 150//150 105//105 76//76
f 150//150 125//125 73//73
f 150//150 73//73 105//105
f 150//150 76//76 75//75
f 150//150 75//75 78//78
f 151//151 114//114 30//30
f 151//151 30//30 125//125
f 151//151 129//129 114//114
f 152//152 126//126 123//123
f 152//152 123//123 71//71
f 152//152 127//127 126//126
f 152//152 144//144 127//127
f 152//152 71//71 144//144
f 153//153 78//78 79//79
f 153//153 79//79 129//129
f 153//153 125//125 78//78
f 154//154 132//132 18//18
f 154//154 18//18 63//63
f 154//154 63//63 115//115
f 154//154 115//115 132//132
f 155//155 133//133 84//84
f 155//155 141//141 94//94
f 155//155 84//84 141//141
f 156//156 93//93 95//95
f 156//156 95//95 133//133
f 156//156 94//94 93//93
f 156//156 155//155 94//94
f 156//156 133//133 155//155
f 157//157 113//113 112//112
f 157//157 112//112 134//134
f 158//158 90//90 91//91
f 158//158 140//140 139//139
f 158//158 139//139 90//90
f 158//158 91//91 85//85
f 158//158 85//85 140//140
f 159//159 146//146 117//117
f 159//159 117//117 120//120
f 159//159 120//120 146//146
f 160//160 149//149 29//29
f 160//160 29//29 124//124
f 160//160 124//124 149//149
f 161//161 150//150 78//78
f 161//161 78//78 125//125
f 161//161 125//125 150//150
f 162//162 153//153 129//129
f 162//162 129//129 151//151
f 162//162 151//151 125//125
f 162//162 125//125 153//153
f 163//163 157//157 134//134
f 163//163 134//134 113//113
f 163//163 113//113 157//157
